<svg xmlns="http://www.w3.org/2000/svg" width="143" height="61" viewBox="0 0 143 61">
    <g fill="none" fill-rule="evenodd">
        <path  d="M-456-362h1920V752H-456z"/>
        <path fill="#B7BEC1" d="M22 20c5.785.27 10.36 2.122 14 6 3.306 3.612 5 8.324 5 14 0 6.273-1.864 11.407-6 15-3.403 4.065-8.316 6-14 6C8.132 61 .678 53.847 0 43h7c1.132 7.565 5.96 11.436 13 11 8.209.436 13.545-5.034 14-14-.455-7.864-5.537-13.502-13-14-5.752.498-9.649 2.35-12 6H1L4 1h34v6H10L9 24h2c2.554-2.383 6.366-3.73 11-4zm27 11c0-20.847 8.433-31 21-31 13.483 0 22 10.32 22 31 0 19.763-8.517 30-22 30-12.567 0-21-10.237-21-30zm7 0c0 7.428 1.023 13.019 3 17l19-38c-2.132-2.153-4.69-3-8-3-9.225 0-14 8.98-14 24zm15 23c9.14 0 14-8.797 14-24 0-6.54-1.023-11.934-3-16L63 52c2.132 1.17 4.605 2 8 2zm29-23c0-20.847 8.433-31 21-31 13.483 0 22 10.32 22 31 0 19.763-8.517 30-22 30-12.567 0-21-10.237-21-30zm7 0c0 7.428 1.023 13.019 3 17l19-38c-2.132-2.153-4.69-3-8-3-9.225 0-14 8.98-14 24zm15 23c9.14 0 14-8.797 14-24 0-6.54-1.023-11.934-3-16l-19 38c2.132 1.17 4.605 2 8 2z"/>
    </g>
</svg>
