<svg xmlns="http://www.w3.org/2000/svg" width="16" height="18" viewBox="0 0 16 18">
    <g fill="none" fill-rule="evenodd">
        <path  d="M-824-1000h2704v3424H-824z"/>
        <path fill="#707E85" fill-rule="nonzero" d="M15.614 2.951a1.155 1.155 0 0 0-.864-.381h-1.228v-.964c0-.442-.15-.82-.451-1.134A1.447 1.447 0 0 0 11.986 0h-.614c-.422 0-.784.157-1.084.472-.301.314-.451.692-.451 1.134v.964H6.15v-.964c0-.442-.15-.82-.45-1.134A1.447 1.447 0 0 0 4.615 0h-.614c-.423 0-.784.157-1.085.472-.3.314-.45.692-.45 1.134v.964h-1.23c-.332 0-.62.127-.863.381a1.263 1.263 0 0 0-.365.904v12.847c0 .348.122.65.365.904s.53.381.864.381H14.75c.333 0 .62-.127.864-.381.243-.255.364-.556.364-.904V3.854c0-.348-.121-.649-.364-.903zm-4.549-1.345a.32.32 0 0 1 .086-.23.292.292 0 0 1 .221-.091h.614c.09 0 .163.03.22.09a.32.32 0 0 1 .087.231v2.89a.32.32 0 0 1-.086.232.293.293 0 0 1-.22.09h-.615a.292.292 0 0 1-.22-.09.32.32 0 0 1-.087-.231v-2.89zm-7.37 0a.32.32 0 0 1 .086-.23.292.292 0 0 1 .22-.091h.615c.09 0 .163.03.22.09a.32.32 0 0 1 .087.231v2.89a.32.32 0 0 1-.086.232.292.292 0 0 1-.221.09h-.614a.292.292 0 0 1-.221-.09.321.321 0 0 1-.086-.231v-2.89zM14.75 16.702H1.238V6.424H14.75v10.278z"/>
    </g>
</svg>
