<?xml version="1.0" encoding="UTF-8"?>
<svg width="22px" height="20px" viewBox="0 0 22 20" version="1.1" xmlns="http://www.w3.org/2000/svg" xmlns:xlink="http://www.w3.org/1999/xlink">
    <!-- Generator: Sketch 51 (57462) - http://www.bohemiancoding.com/sketch -->
    <title>filter</title>
    <desc>Created with Sketch.</desc>
    <defs></defs>
    <g id="Category" stroke="none" stroke-width="1" fill="none" fill-rule="evenodd">
        <g id="category-filter-open-all" transform="translate(-17.000000, -102.000000)">
            <rect fill="#F1F4F6" x="0" y="0" width="320" height="1258"></rect>
            <g id="Sort" transform="translate(0.000000, 84.000000)" fill="#707E85" fill-rule="nonzero">
                <g id="Group-4">
                    <g id="filter" transform="translate(10.000000, 10.000000)">
                        <g id="list" transform="translate(7.000000, 8.000000)">
                            <path d="M2.41463415,4.82926829 C3.74795205,4.82926829 4.82926829,3.74439949 4.82926829,2.4169229 C4.82926829,1.08944631 3.74795205,0 2.41463415,0 C1.08131624,0 0,1.0848688 0,2.41234539 C0,3.73982199 1.08589809,4.82926829 2.41463415,4.82926829 Z M2.41463415,1.12148885 C3.12940251,1.12148885 3.70671542,1.70283204 3.70671542,2.41234539 C3.70671542,3.12185874 3.12482066,3.70320194 2.41463415,3.70320194 C1.70444763,3.70320194 1.12255288,3.12185874 1.12255288,2.41234539 C1.12255288,1.70283204 1.70444763,1.12148885 2.41463415,1.12148885 Z" id="Shape"></path>
                            <path d="M2.41463415,12.3414634 C3.74795205,12.3414634 4.82926829,11.2555653 4.82926829,9.92682927 C4.82926829,8.59809321 3.74795205,7.51219512 2.41463415,7.51219512 C1.08131624,7.51219512 0,8.59351136 0,9.92682927 C0,11.2601472 1.08589809,12.3414634 2.41463415,12.3414634 Z M2.41463415,8.634748 C3.12940251,8.634748 3.70671542,9.21664275 3.70671542,9.92682927 C3.70671542,10.6370158 3.12482066,11.2189105 2.41463415,11.2189105 C1.70444763,11.2189105 1.12255288,10.6415976 1.12255288,9.92682927 C1.12255288,9.21206091 1.70444763,8.634748 2.41463415,8.634748 Z" id="Shape"></path>
                            <path d="M2.41463415,19.3170732 C3.74795205,19.3170732 4.82926829,18.2311751 4.82926829,16.902439 C4.82926829,15.5691211 3.7433702,14.4878049 2.41463415,14.4878049 C1.08589809,14.4878049 0,15.573703 0,16.902439 C0,18.2311751 1.08589809,19.3170732 2.41463415,19.3170732 Z M2.41463415,15.6057759 C3.12940251,15.6057759 3.70671542,16.1876707 3.70671542,16.8978572 C3.70671542,17.6126255 3.12482066,18.1899384 2.41463415,18.1899384 C1.70444763,18.1899384 1.12255288,17.6080437 1.12255288,16.8978572 C1.12255288,16.1876707 1.70444763,15.6057759 2.41463415,15.6057759 Z" id="Shape"></path>
                            <path d="M8.05865326,2.68292683 L21.4535419,2.68292683 C21.7556488,2.68292683 22,2.44299028 22,2.14634146 C22,1.84969264 21.7556488,1.6097561 21.4535419,1.6097561 L8.05865326,1.6097561 C7.75654632,1.6097561 7.51219512,1.84969264 7.51219512,2.14634146 C7.51219512,2.44299028 7.75654632,2.68292683 8.05865326,2.68292683 Z" id="Shape"></path>
                            <path d="M8.05865326,10.195122 L21.4535419,10.195122 C21.7556488,10.195122 22,9.95518541 22,9.65853659 C22,9.36188777 21.7556488,9.12195122 21.4535419,9.12195122 L8.05865326,9.12195122 C7.75654632,9.12195122 7.51219512,9.36188777 7.51219512,9.65853659 C7.51219512,9.95518541 7.75654632,10.195122 8.05865326,10.195122 Z" id="Shape"></path>
                            <path d="M8.05865326,17.7073171 L21.4535419,17.7073171 C21.7556488,17.7073171 22,17.4673805 22,17.1707317 C22,16.8740829 21.7556488,16.6341463 21.4535419,16.6341463 L8.05865326,16.6341463 C7.75654632,16.6341463 7.51219512,16.8740829 7.51219512,17.1707317 C7.51219512,17.4673805 7.75654632,17.7073171 8.05865326,17.7073171 Z" id="Shape"></path>
                        </g>
                    </g>
                </g>
            </g>
        </g>
    </g>
</svg>