<svg xmlns="http://www.w3.org/2000/svg" width="50" height="50" viewBox="0 0 50 50">
    <g fill="none" fill-rule="evenodd">
        <path d="M-510-100h2704v3424H-510z"/>
        <path fill="#E9F3F7" d="M0 0h50v50H0z"/>
        <path fill="#646F75" fill-rule="nonzero" d="M31.292 20.118a.997.997 0 0 0 .003-1.413.999.999 0 0 0-1.413.003L25 23.59l-4.882-4.882a.997.997 0 0 0-1.413-.003.999.999 0 0 0 .003 1.413L23.59 25l-4.882 4.882a.997.997 0 0 0-.003 1.413.999.999 0 0 0 1.413-.003L25 26.41l4.882 4.882a.997.997 0 0 0 1.413.003.999.999 0 0 0-.003-1.413L26.41 25l4.882-4.882z"/>
        <path d="M13 13h24v24H13z"/>
    </g>
</svg>
