<svg xmlns="http://www.w3.org/2000/svg" width="270" height="270"  viewBox="0 0 270 270">
    <g fill="none" fill-rule="evenodd">
        <path stroke="#FFF" stroke-linecap="round" stroke-linejoin="round" stroke-width="2" d="M133 176H42V78h91"/>
        <rect width="100" height="210" x="138" y="30" stroke="#0CBAEE" stroke-linecap="round" stroke-linejoin="round" stroke-width="2" rx="4"/>
        <path stroke="#FFF" stroke-linecap="round" stroke-linejoin="round" stroke-width="2" d="M133 188H36a4 4 0 0 1-4-4V70a4 4 0 0 1 4-4h97M123 212H99v-24h24"/>
        <rect width="50" height="2" x="84" y="211" fill="#FFF" rx="1"/>
        <path stroke="#0CBAEE" stroke-linecap="round" stroke-linejoin="round" stroke-width="2" d="M149 45h78v64h-78z"/>
        <rect width="7" height="2" x="211" y="55" fill="#0CBAEE" rx="1"/>
        <rect width="7" height="2" x="211" y="76" fill="#0CBAEE" rx="1"/>
        <rect width="7" height="2" x="211" y="98" fill="#0CBAEE" rx="1"/>
        <path fill="#0CBAEE" d="M148 65h80v2h-80zM148 88h80v2h-80z"/>
        <circle cx="188" cy="135" r="5" stroke="#0CBAEE" stroke-linecap="round" stroke-linejoin="round" stroke-width="2"/>
        <circle cx="188" cy="153" r="3" stroke="#0CBAEE" stroke-linecap="round" stroke-linejoin="round" stroke-width="2"/>
        <g fill="#202528" transform="translate(154 186)">
            <circle cx="14" cy="14" r="4"/>
            <circle cx="24" cy="4" r="4"/>
            <circle cx="14" cy="4" r="4"/>
            <circle cx="4" cy="4" r="4"/>
            <circle cx="34" cy="14" r="4"/>
            <circle cx="34" cy="4" r="4"/>
            <circle cx="44" cy="14" r="4"/>
            <circle cx="54" cy="4" r="4"/>
            <circle cx="54" cy="14" r="4"/>
            <circle cx="64" cy="14" r="4"/>
            <circle cx="14" cy="24" r="4"/>
            <circle cx="4" cy="24" r="4"/>
            <circle cx="34" cy="24" r="4"/>
            <circle cx="24" cy="24" r="4"/>
            <circle cx="44" cy="24" r="4"/>
            <circle cx="54" cy="24" r="4"/>
            <circle cx="64" cy="24" r="4"/>
            <circle cx="24" cy="34" r="4"/>
            <circle cx="34" cy="34" r="4"/>
            <circle cx="54" cy="34" r="4"/>
            <circle cx="44" cy="34" r="4"/>
        </g>
        <g stroke="#0CBAEE" stroke-linecap="round" stroke-linejoin="round" stroke-width="2">
            <path d="M101 125l6-6M111 135l6-6M100 136l18-18"/>
        </g>
    </g>
</svg>
