<svg xmlns="http://www.w3.org/2000/svg" width="62" height="50" viewBox="0 0 62 50">
    <g fill="none" fill-rule="evenodd">
        <path fill="#FFF" d="M-860-150h2704v3424H-860z"/>
        <g fill-rule="nonzero">
            <path fill="#707E85" d="M58.9.093H3.1C1.388.093 0 1.547 0 3.342v43.316c0 1.794 1.388 3.249 3.1 3.249h55.8c1.712 0 3.1-1.455 3.1-3.249V3.342c0-1.196-1.033-2.28-3.1-3.249zm1.033 46.565c0 .598-.462 1.083-1.033 1.083H3.1c-.57 0-1.033-.485-1.033-1.083V3.342c0-.598.462-1.083 1.033-1.083h55.8c.57 0 1.033.485 1.033 1.083v43.316z"/>
            <path fill="#0CBAEE" d="M56.923 4.429a1.002 1.002 0 0 0-.754.25l-23.84 20.986a1.995 1.995 0 0 1-2.659 0L5.831 4.678a.997.997 0 0 0-1.018-.188c-.346.132-.6.448-.664.83-.064.38.07.768.353 1.017l23.84 20.986a3.985 3.985 0 0 0 5.317 0L57.498 6.337a1.117 1.117 0 0 0 .127-1.526 1.018 1.018 0 0 0-.702-.382zM19.874 27.174a1.005 1.005 0 0 0-.996.336L4.41 43.754a1.12 1.12 0 0 0-.25 1.065c.106.376.399.663.764.748.366.086.748-.043.997-.336l14.467-16.244a1.12 1.12 0 0 0 .25-1.065 1.055 1.055 0 0 0-.765-.748zM43.122 27.51a1.005 1.005 0 0 0-.996-.336 1.055 1.055 0 0 0-.766.748 1.12 1.12 0 0 0 .251 1.065l14.467 16.244a1 1 0 0 0 1.444.035 1.12 1.12 0 0 0 .067-1.512L43.122 27.51z"/>
        </g>
    </g>
</svg>
