<svg xmlns="http://www.w3.org/2000/svg" width="130" height="64" viewBox="0 0 130 64">
    <g fill="none" fill-rule="evenodd">
        <path  d="M-464-360h1920V754H-464z"/>
        <g fill="#B7BEC1" fill-rule="nonzero">
            <path d="M3.17 45.3h36.993a2.638 2.638 0 0 0 2.642-2.633 2.638 2.638 0 0 0-2.642-2.634H8.106l18.845-28.181v20.28a2.638 2.638 0 0 0 2.642 2.633c1.46 0 2.643-1.179 2.643-2.633V3.16c0-.087-.043-.158-.05-.245a2.446 2.446 0 0 0-.106-.526 2.528 2.528 0 0 0-.188-.454 2.485 2.485 0 0 0-.647-.787c-.066-.055-.103-.129-.174-.176-.072-.048-.148-.05-.22-.09a2.506 2.506 0 0 0-.499-.203 2.658 2.658 0 0 0-.51-.102 2.422 2.422 0 0 0-.248-.05c-.088 0-.164.042-.249.05a2.735 2.735 0 0 0-.98.29c-.147.078-.286.172-.415.278-.137.114-.264.24-.378.377-.053.066-.13.105-.177.176L.973 41.205a2.627 2.627 0 0 0-.132 2.704A2.643 2.643 0 0 0 3.17 45.3zM29.593 50.568a2.638 2.638 0 0 0-2.642 2.634v7.9a2.638 2.638 0 0 0 2.642 2.634 2.638 2.638 0 0 0 2.643-2.633v-7.901a2.638 2.638 0 0 0-2.643-2.634zM90.366 45.3h36.992A2.638 2.638 0 0 0 130 42.667a2.638 2.638 0 0 0-2.642-2.634H95.302l18.844-28.181v20.28a2.638 2.638 0 0 0 2.643 2.633c1.459 0 2.642-1.179 2.642-2.633V3.16c0-.087-.043-.158-.05-.245a2.446 2.446 0 0 0-.106-.526 2.528 2.528 0 0 0-.188-.454 2.485 2.485 0 0 0-.647-.787c-.066-.055-.103-.129-.174-.176-.071-.048-.148-.05-.22-.09a2.506 2.506 0 0 0-.499-.203 2.658 2.658 0 0 0-.51-.102 2.422 2.422 0 0 0-.248-.05c-.087 0-.164.042-.249.05a2.704 2.704 0 0 0-.983.292c-.146.077-.284.17-.412.276-.14.112-.267.239-.38.377-.053.066-.13.105-.177.176L88.165 41.205a2.627 2.627 0 0 0-.131 2.705 2.643 2.643 0 0 0 2.332 1.39zM116.789 50.568a2.638 2.638 0 0 0-2.643 2.634v7.9a2.638 2.638 0 0 0 2.643 2.634 2.638 2.638 0 0 0 2.642-2.633v-7.901a2.638 2.638 0 0 0-2.642-2.634zM58.659 63.737H71.87c5.837 0 10.569-4.717 10.569-10.535v-42.14C82.439 5.244 77.707.527 71.87.527H58.659c-5.838 0-10.57 4.717-10.57 10.535v42.14c0 5.818 4.732 10.535 10.57 10.535zm-5.285-52.675c0-2.91 2.366-5.268 5.285-5.268H71.87c2.919 0 5.285 2.358 5.285 5.268v42.14c0 2.909-2.366 5.267-5.285 5.267H58.659c-2.92 0-5.285-2.358-5.285-5.267v-42.14z"/>
        </g>
    </g>
</svg>
