<?xml version="1.0" encoding="UTF-8"?>
<svg viewBox="0 0 22 21" version="1.1" xmlns="http://www.w3.org/2000/svg" xmlns:xlink="http://www.w3.org/1999/xlink">
    <!-- Generator: Sketch 51 (57462) - http://www.bohemiancoding.com/sketch -->
    <title>filter</title>
    <desc>Created with Sketch.</desc>
    <defs></defs>
    <g id="Category" stroke="none" stroke-width="1" fill="none" fill-rule="evenodd">
        <g id="category-filter-open-all" transform="translate(-281.000000, -102.000000)">
            <rect x="0" y="0" width="320" height="1258"></rect>
            <g id="Sort" transform="translate(0.000000, 84.000000)">
                <g id="Group-4">
                    <g id="filter" transform="translate(274.000000, 10.000000)">
                        <rect id="Rectangle-7" x="0" y="0" width="36" height="36" rx="4"></rect>
                        <path d="M28.9363418,8.38220838 C28.8262798,8.14884888 28.5913089,8 28.3332233,8 L7.66681173,8 C7.40872607,8 7.17384411,8.14884888 7.06369319,8.38220838 C6.95363116,8.61556788 6.98812556,8.89140485 7.15232956,9.09046246 L15.0967983,18.722007 L15.0967983,27.6031754 C15.0967983,27.8337801 15.2160173,28.0479447 15.4119597,28.1695121 C15.5193547,28.236072 15.6412408,28.2696629 15.7635715,28.2696629 C15.8646543,28.2696629 15.9660927,28.2466469 16.0596187,28.2003482 L20.5232649,25.9889426 C20.7500567,25.8766172 20.8935463,25.6456571 20.8939019,25.3926584 L20.9026144,18.7222736 L28.8475276,9.09037359 C29.0118205,8.89140485 29.0464038,8.61547901 28.9363418,8.38220838 Z M19.7218036,18.0586297 C19.6235657,18.1777088 19.5696904,18.3272686 19.5695126,18.481716 L19.5609779,24.9780143 L16.4304335,26.5289752 L16.4304335,18.4826047 C16.4304335,18.3278907 16.3766471,18.1779754 16.2781425,18.0586297 L9.08072642,9.33288618 L26.9192197,9.33288618 L19.7218036,18.0586297 Z" id="Shape" fill="#fff" fill-rule="nonzero"></path>
                    </g>
                </g>
            </g>
        </g>
    </g>
</svg>