<svg xmlns="http://www.w3.org/2000/svg" width="270" height="270"  viewBox="0 0 270 270">
    <g fill="none" fill-rule="evenodd">
        <g transform="translate(32 30)">
            <path stroke="#FFF" stroke-linecap="round" stroke-linejoin="round" stroke-width="2" d="M110 170v36a4 4 0 0 1-4 4H4a4 4 0 0 1-4-4V20L20 0h70l20 20v140"/>
            <circle cx="87" cy="23" r="3" stroke="#0CBAEE" stroke-linecap="round" stroke-linejoin="round" stroke-width="2"/>
            <circle cx="87" cy="187" r="3" stroke="#0CBAEE" stroke-linecap="round" stroke-linejoin="round" stroke-width="2"/>
            <circle cx="23" cy="23" r="3" stroke="#0CBAEE" stroke-linecap="round" stroke-linejoin="round" stroke-width="2"/>
            <circle cx="23" cy="187" r="3" stroke="#0CBAEE" stroke-linecap="round" stroke-linejoin="round" stroke-width="2"/>
            <path stroke="#0CBAEE" stroke-linecap="round" stroke-linejoin="round" stroke-width="2" d="M115 74h69v62h-69"/>
            <path fill="#0CBAEE" d="M144 136h28v2a2 2 0 0 1-2 2h-24a2 2 0 0 1-2-2v-2z"/>
            <circle cx="55" cy="165" r="5" stroke="#FFF" stroke-linecap="round" stroke-linejoin="round" stroke-width="2"/>
        </g>
        <g fill="#202528" transform="translate(156 121)">
            <circle cx="4" cy="4" r="4"/>
            <circle cx="14" cy="14" r="4"/>
            <circle cx="4" cy="14" r="4"/>
            <circle cx="24" cy="14" r="4"/>
            <circle cx="4" cy="24" r="4"/>
            <circle cx="14" cy="24" r="4"/>
            <circle cx="34" cy="24" r="4"/>
            <circle cx="24" cy="24" r="4"/>
        </g>
        <path stroke="#0CBAEE" stroke-linecap="round" stroke-linejoin="round" stroke-width="2" d="M196 116v5.5"/>
        <g stroke="#FFF" stroke-linecap="round" stroke-linejoin="round" stroke-width="2">
            <path d="M79 63h16l8 8v16H71V71zM87 70v6M94 74v6M80 74v6"/>
        </g>
        <g stroke="#FFF" stroke-linecap="round" stroke-linejoin="round" stroke-width="2">
            <path d="M79 103h16l8 8v16H71v-16zM87 110v6M94 114v6M80 114v6"/>
        </g>
        <g stroke="#FFF" stroke-linecap="round" stroke-linejoin="round" stroke-width="2">
            <path d="M79 143h16l8 8v16H71v-16zM87 150v6M94 154v6M80 154v6"/>
        </g>
        <path stroke="#FFF" stroke-linecap="round" stroke-linejoin="round" stroke-width="2" d="M97 195h141V78.43M233 78h8c6.627 0 12-5.373 12-12V54h-32v12c0 6.627 5.373 12 12 12zM230 44v10M244 44v10"/>
        <path stroke="#0CBAEE" stroke-linecap="round" stroke-linejoin="round" stroke-width="2" d="M191.757 117.757a6 6 0 1 0 8.485 0"/>
    </g>
</svg>
