<?xml version="1.0" encoding="UTF-8"?>
<svg width="125px" height="25px" viewBox="0 0 125 25" version="1.1" xmlns="http://www.w3.org/2000/svg" xmlns:xlink="http://www.w3.org/1999/xlink">
    <!-- Generator: Sketch 51 (57462) - http://www.bohemiancoding.com/sketch -->
    <title>New LOGO</title>
    <desc>Created with Sketch.</desc>
    <defs></defs>
    <g id="Main" stroke="none" stroke-width="1" fill="none" fill-rule="evenodd">
        <g id="NEW-Search" transform="translate(-270.000000, -55.000000)">
            <rect fill="#FFFFFF" x="0" y="0" width="1920" height="1544"></rect>
            <g id="Desktop">
                <g id="Поиск-нормал">
                    <g id="Панель-2" transform="translate(0.000000, 40.000000)">
                        <g id="Logo" transform="translate(270.000000, 15.000000)">
                            <g id="New-LOGO">
                                <rect id="Rectangle-8" fill="#0CBAEE" x="0" y="0" width="35.8761329" height="24.1691843"></rect>
                                <rect id="Rectangle-8-Copy" fill="#48575F" x="35.8761329" y="0" width="89.1238671" height="24.1691843"></rect>
                                <g id="Logo" transform="translate(7.552870, 6.797583)" fill="#FFFFFF">
                                    <g id="logo-copy-4">
                                        <g id="Group-6-Copy">
                                            <path d="M6.83925409,1.15221938 C7.5028682,1.71384586 7.83467028,2.5764912 7.83467028,3.74018127 C7.83467028,4.90387134 7.49383957,5.75528431 6.81216793,6.29444574 C6.1304963,6.83360716 5.08994692,7.10318383 3.69048859,7.10318383 L2.43098239,7.10318383 L2.43098239,9.73158262 L0.318262319,9.73158262 L0.318262319,0.309783872 L3.66340244,0.309783872 C5.11703335,0.309783872 6.17563998,0.5905929 6.83925409,1.15221938 Z M5.28857173,4.85893563 C5.5413771,4.57587588 5.66777789,4.16252499 5.66777789,3.61887056 C5.66777789,3.07521612 5.50300543,2.6888229 5.17345557,2.45967929 C4.8439057,2.23053569 4.33153107,2.11596561 3.63631628,2.11596561 L2.43098239,2.11596561 L2.43098239,5.28352312 L3.85300552,5.28352312 C4.55724907,5.28352312 5.03576635,5.14199537 5.28857173,4.85893563 Z M18.3659756,7.87148501 C19.4042834,7.87148501 20.2529744,7.46262706 20.9120742,6.64489891 L22.2663819,8.03323263 C21.1919591,9.2373598 19.925694,9.83941436 18.4675487,9.83941436 C17.0094034,9.83941436 15.8085959,9.38113403 14.8650901,8.46455961 C13.9215843,7.54798519 13.4498385,6.39105199 13.4498385,4.99372531 C13.4498385,3.59639862 13.930613,2.43047954 14.8921763,1.49593307 C15.8537396,0.561386605 17.0297184,0.0941203811 18.4201479,0.0941203811 C19.9730952,0.0941203811 21.2732177,0.682696105 22.3205542,1.85986521 L21.0068757,3.34255171 C20.3387472,2.51583753 19.5081134,2.10248664 18.5149495,2.10248664 C17.7204183,2.10248664 17.041014,2.36083094 16.4767163,2.87752731 C15.9124186,3.39422367 15.630274,4.09063006 15.630274,4.96676737 C15.630274,5.84290468 15.8966185,6.54605049 16.4293156,7.07622589 C16.9620126,7.60640129 17.6075595,7.87148501 18.3659756,7.87148501 Z" id="PCplanet"></path>
                                            <path d="M40.6495468,1.15221938 C41.3131609,1.71384586 41.644963,2.5764912 41.644963,3.74018127 C41.644963,4.90387134 41.3041323,5.75528431 40.6224607,6.29444574 C39.940789,6.83360716 38.9002397,7.10318383 37.5007813,7.10318383 L36.2412751,7.10318383 L36.2412751,9.73158262 L34.1285551,9.73158262 L34.1285551,0.309783872 L37.4736952,0.309783872 C38.9273261,0.309783872 39.9859327,0.5905929 40.6495468,1.15221938 Z M39.0988645,4.85893563 C39.3516698,4.57587588 39.4780706,4.16252499 39.4780706,3.61887056 C39.4780706,3.07521612 39.3132982,2.6888229 38.9837483,2.45967929 C38.6541984,2.23053569 38.1418238,2.11596561 37.446609,2.11596561 L36.2412751,2.11596561 L36.2412751,5.28352312 L37.6632983,5.28352312 C38.3675418,5.28352312 38.8460591,5.14199537 39.0988645,4.85893563 Z" id="Combined-Shape"></path>
                                            <polygon id="Path" points="47.451297 9.73158262 47.451297 0.309783872 49.5640171 0.309783872 49.5640171 7.85800604 53.5998542 7.85800604 53.5998542 9.73158262"></polygon>
                                            <path d="M67.1752266,9.73158262 L66.2949266,7.69625842 L62.3268049,7.69625842 L61.4465048,9.73158262 L59.198354,9.73158262 L63.2883634,0.309783872 L65.3333681,0.309783872 L69.4233774,9.73158262 L67.1752266,9.73158262 Z M64.3176373,3.11340925 L63.1258464,5.84963979 L65.495885,5.84963979 L64.3176373,3.11340925 Z" id="Combined-Shape"></path>
                                            <polygon id="Path" points="81.6746536 0.309783872 83.7873737 0.309783872 83.7873737 9.73158262 81.6746536 9.73158262 77.1648088 3.82779456 77.1648088 9.73158262 75.0520888 9.73158262 75.0520888 0.309783872 77.0293781 0.309783872 81.6746536 6.37531954"></polygon>
                                            <polygon id="Path" points="96.3412856 0.309783872 96.3412856 2.18336045 91.6282946 2.18336045 91.6282946 4.12433186 95.8672778 4.12433186 95.8672778 5.91703463 91.6282946 5.91703463 91.6282946 7.87148501 96.4902594 7.87148501 96.4902594 9.73158262 89.5155745 9.73158262 89.5155745 0.309783872"></polygon>
                                            <polygon id="Path" points="106.91322 2.12944457 106.91322 9.73158262 104.8005 9.73158262 104.8005 2.12944457 102.118971 2.12944457 102.118971 0.309783872 109.594749 0.309783872 109.594749 2.12944457"></polygon>
                                        </g>
                                    </g>
                                </g>
                            </g>
                        </g>
                    </g>
                </g>
            </g>
        </g>
    </g>
</svg>