<svg xmlns="http://www.w3.org/2000/svg" width="142" height="40" viewBox="0 0 142 40">
    <g fill="none" fill-rule="evenodd">
        <path  d="M-961-376H959v1557H-961z"/>
        <path fill="#202528" d="M10 25.376l-10.006-5.46L10 14.458V0h132v39.167H10V25.376z"/>
        <path fill="#0CBAEE" d="M18 8h35.268v23.202H18z"/>
        <g fill="#FFF">
            <path d="M32.148 15.632c.653.539.979 1.367.979 2.484s-.335 1.935-1.005 2.452c-.67.518-1.693.777-3.07.777h-1.237v2.523h-2.077v-9.045h3.288c1.43 0 2.47.27 3.122.809zm-1.524 3.558c.248-.271.373-.668.373-1.19 0-.522-.162-.893-.486-1.113-.324-.22-.828-.33-1.511-.33h-1.185v3.04h1.398c.692 0 1.162-.135 1.41-.407zm12.856 2.892c1.02 0 1.855-.392 2.502-1.177l1.332 1.333c-1.056 1.156-2.301 1.734-3.735 1.734-1.433 0-2.613-.44-3.541-1.32-.928-.88-1.391-1.99-1.391-3.332 0-1.342.472-2.461 1.418-3.358.945-.897 2.1-1.346 3.468-1.346 1.526 0 2.805.565 3.834 1.695l-1.291 1.424c-.657-.794-1.474-1.19-2.45-1.19-.781 0-1.449.247-2.004.743-.554.496-.832 1.165-.832 2.006 0 .84.262 1.516.786 2.025a2.631 2.631 0 0 0 1.904.763zM65.385 15.632c.653.539.979 1.367.979 2.484s-.335 1.935-1.005 2.452c-.67.518-1.693.777-3.069.777h-1.238v2.523h-2.077v-9.045h3.288c1.43 0 2.47.27 3.122.809zm-1.524 3.558c.249-.271.373-.668.373-1.19 0-.522-.162-.893-.486-1.113-.324-.22-.828-.33-1.511-.33h-1.185v3.04h1.398c.692 0 1.163-.135 1.411-.407zM72.072 23.868v-9.045h2.077v7.246h3.967v1.799zM91.462 23.868l-.866-1.954h-3.9l-.866 1.954h-2.21l4.02-9.045h2.01l4.022 9.045h-2.21zm-2.81-6.353l-1.171 2.626h2.33l-1.159-2.626zM105.715 14.823h2.077v9.045h-2.077l-4.433-5.668v5.668h-2.077v-9.045h1.944l4.566 5.823zM120.133 14.823v1.799H115.5v1.863h4.167v1.721H115.5v1.876h4.78v1.786h-6.857v-9.045zM130.526 16.57v7.298h-2.077V16.57h-2.636v-1.747h7.35v1.747z"/>
        </g>
    </g>
</svg>
