<svg xmlns="http://www.w3.org/2000/svg" width="270" height="270"  viewBox="0 0 270 270">
    <g fill="none" fill-rule="evenodd">
        <path fill="#FFF" d="M217 90h28v2a2 2 0 0 1-2 2h-24a2 2 0 0 1-2-2v-2zM129 90h28v2a2 2 0 0 1-2 2h-24a2 2 0 0 1-2-2v-2z"/>
        <path stroke="#0CBAEE" stroke-linecap="round" stroke-linejoin="round" stroke-width="2" d="M226 98v90H44V70h60"/>
        <g fill="#202528" transform="translate(101 105)">
            <circle cx="14" cy="14" r="4"/>
            <circle cx="14" cy="4" r="4"/>
            <circle cx="4" cy="4" r="4"/>
            <circle cx="34" cy="14" r="4"/>
            <circle cx="44" cy="14" r="4"/>
            <circle cx="54" cy="14" r="4"/>
            <circle cx="64" cy="14" r="4"/>
            <circle cx="14" cy="24" r="4"/>
            <circle cx="4" cy="24" r="4"/>
            <circle cx="34" cy="24" r="4"/>
            <circle cx="24" cy="24" r="4"/>
            <circle cx="44" cy="24" r="4"/>
            <circle cx="54" cy="24" r="4"/>
            <circle cx="64" cy="24" r="4"/>
            <circle cx="24" cy="34" r="4"/>
            <circle cx="24" cy="44" r="4"/>
            <circle cx="4" cy="34" r="4"/>
            <circle cx="34" cy="34" r="4"/>
            <circle cx="54" cy="34" r="4"/>
            <circle cx="54" cy="44" r="4"/>
            <circle cx="44" cy="34" r="4"/>
        </g>
        <path stroke="#0CBAEE" stroke-linecap="round" stroke-linejoin="round" stroke-width="2" d="M238 98v98a4 4 0 0 1-4 4H36a4 4 0 0 1-4-4V62a4 4 0 0 1 4-4h68M149 224h-24v-24h24z"/>
        <rect width="54" height="2" x="110" y="223" fill="#0CBAEE" rx="1"/>
        <rect width="150" height="60" x="109" y="30" stroke="#FFF" stroke-linecap="round" stroke-linejoin="round" stroke-width="2" rx="10"/>
        <g stroke="#FFF" stroke-linecap="round" stroke-linejoin="round" stroke-width="2">
            <path d="M135 48h16M135 56h16M135 64h16M135 72h16"/>
        </g>
        <circle cx="221" cy="60" r="20" stroke="#FFF" stroke-linecap="round" stroke-linejoin="round" stroke-width="2"/>
        <g stroke="#0CBAEE" stroke-linecap="round" stroke-linejoin="round" stroke-width="2">
            <path d="M213 58l6-6M223 68l6-6M212 69l18-18"/>
        </g>
    </g>
</svg>
