<svg xmlns="http://www.w3.org/2000/svg" width="270" height="270" viewBox="0 0 270 270">
    <g fill="none" fill-rule="evenodd">
        <path stroke="#FFF" stroke-linecap="round" stroke-linejoin="round" stroke-width="2" d="M71 184V34a4 4 0 0 1 4-4h52.611a4 4 0 0 1 3.946 3.342l3.886 23.316A4 4 0 0 0 139.389 60H207a4 4 0 0 1 4 4v81m0 46v45a4 4 0 0 1-4 4H75a4 4 0 0 1-4-4v-54"/>
        <circle cx="85" cy="44" r="5" stroke="#0CBAEE" stroke-linecap="round" stroke-linejoin="round" stroke-width="2"/>
        <circle cx="122" cy="44" r="3" stroke="#FFF" stroke-linecap="round" stroke-linejoin="round" stroke-width="2"/>
        <circle cx="112" cy="44" r="3" stroke="#FFF" stroke-linecap="round" stroke-linejoin="round" stroke-width="2"/>
        <path fill="#FFF" d="M171 240h28v2a2 2 0 0 1-2 2h-24a2 2 0 0 1-2-2v-2zM83 240h28v2a2 2 0 0 1-2 2H85a2 2 0 0 1-2-2v-2z"/>
        <path stroke="#FFF" stroke-linecap="round" stroke-linejoin="round" stroke-width="2" d="M71 205h140"/>
        <g fill="#202528" transform="translate(89 158)">
            <circle cx="4" cy="4" r="4"/>
            <circle cx="14" cy="14" r="4"/>
            <circle cx="4" cy="14" r="4"/>
            <circle cx="24" cy="14" r="4"/>
            <circle cx="4" cy="24" r="4"/>
            <circle cx="14" cy="24" r="4"/>
            <circle cx="34" cy="24" r="4"/>
            <circle cx="24" cy="24" r="4"/>
        </g>
        <path stroke="#FFF" stroke-linecap="round" stroke-linejoin="round" stroke-width="2" d="M71 96h70M197 96h14"/>
        <rect width="30" height="8" x="126" y="219" stroke="#FFF" stroke-linecap="round" stroke-linejoin="round" stroke-width="2" rx="2"/>
        <path stroke="#FFF" stroke-linecap="round" stroke-linejoin="round" stroke-width="2" d="M139 43.419l57.119-10.072a2 2 0 0 1 2.317 1.623l.347 1.97a2 2 0 0 1-1.622 2.316l-57.12 10.072M66.13 196.419L9.012 186.347a2 2 0 0 0-2.317 1.623l-.348 1.97a2 2 0 0 0 1.623 2.316l26.772 4.72a2 2 0 0 1 1.573 1.41l2.39 8.18a2 2 0 0 0 1.538 1.402L66.13 213"/>
        <rect width="46" height="36" x="146" y="75" stroke="#FFF" stroke-linecap="round" stroke-linejoin="round" stroke-width="2" rx="4"/>
        <g stroke="#0CBAEE" stroke-linecap="round" stroke-linejoin="round" stroke-width="2">
            <path d="M161 91l6-6M171 101l6-6M160 102l18-18"/>
        </g>
        <g stroke-linecap="round" stroke-linejoin="round" stroke-width="2">
            <path stroke="#0CBAEE" d="M196 186h-23a4 4 0 0 1-4-4v-24a4 4 0 0 1 4-4h4l1 4h5l1-4h69l1 4h6l1-4h4a4 4 0 0 1 4 4v24a4 4 0 0 1-4 4h-69zM179 179h80M189 150h60"/>
            <path stroke="#FFF" d="M209 171a3 3 0 0 1-3-3c0-1.105 1-3.105 3-6 2 2.895 3 4.895 3 6a3 3 0 0 1-3 3zm10 0a3 3 0 0 1-3-3c0-1.105 1-3.105 3-6 2 2.895 3 4.895 3 6a3 3 0 0 1-3 3zm10 0a3 3 0 0 1-3-3c0-1.105 1-3.105 3-6 2 2.895 3 4.895 3 6a3 3 0 0 1-3 3z"/>
        </g>
        <g stroke="#FFF" stroke-linecap="round" stroke-linejoin="round" stroke-width="2">
            <path d="M23 107h34v42l-7 8H23z"/>
            <path d="M18 152v-50h34"/>
            <path d="M13 147V97h34"/>
            <path d="M8 142V92h34M57 149h-8v8"/>
        </g>
    </g>
</svg>
