<svg xmlns="http://www.w3.org/2000/svg" width="270" height="270"  viewBox="0 0 270 270">
    <g fill="none" fill-rule="evenodd" transform="translate(32 30)">
        <path stroke="#0CBAEE" stroke-linecap="round" stroke-linejoin="round" stroke-width="2" d="M113 150H6a6 6 0 0 1-6-6V6a6 6 0 0 1 6-6h166a6 6 0 0 1 6 6v79"/>
        <path stroke="#FFF" stroke-linecap="round" stroke-linejoin="round" stroke-width="2" d="M32 63h34M76 63h34"/>
        <g fill="#202528" transform="rotate(180 81 36.5)">
            <circle cx="4" cy="4" r="4"/>
            <circle cx="14" cy="14" r="4"/>
            <circle cx="4" cy="14" r="4"/>
            <circle cx="24" cy="14" r="4"/>
            <circle cx="4" cy="24" r="4"/>
            <circle cx="14" cy="24" r="4"/>
            <circle cx="34" cy="24" r="4"/>
        </g>
        <path stroke="#FFF" stroke-linecap="round" stroke-linejoin="round" stroke-width="2" d="M32 75h54M96 75h34M32 87h20M62 87h40M32 99h44M86 99h34M32 111h14M56 111h34"/>
        <circle cx="163" cy="15" r="3" stroke="#0CBAEE" stroke-linecap="round" stroke-linejoin="round" stroke-width="2"/>
        <circle cx="151" cy="15" r="3" stroke="#0CBAEE" stroke-linecap="round" stroke-linejoin="round" stroke-width="2"/>
        <circle cx="139" cy="15" r="3" stroke="#0CBAEE" stroke-linecap="round" stroke-linejoin="round" stroke-width="2"/>
        <circle cx="178" cy="150" r="60" stroke="#FFF" stroke-linecap="round" stroke-linejoin="round" stroke-width="2"/>
        <circle cx="178" cy="150" r="15" stroke="#FFF" stroke-linecap="round" stroke-linejoin="round" stroke-width="2"/>
        <circle cx="178" cy="150" r="8" stroke="#FFF" stroke-linecap="round" stroke-linejoin="round" stroke-width="2"/>
        <path stroke="#0CBAEE" stroke-linecap="round" stroke-linejoin="round" stroke-width="2" d="M1 29h177.003"/>
        <g stroke-linecap="round" stroke-linejoin="round" stroke-width="2">
            <path stroke="#FFF" d="M178 205v-35m0-40V95"/>
            <path stroke="#0CBAEE" d="M154.803 199.636l14.791-31.721m16.905-36.252l14.792-31.721"/>
        </g>
    </g>
</svg>
