<svg xmlns="http://www.w3.org/2000/svg" width="102" height="212" viewBox="0 0 102 212">
    <g fill="none" fill-rule="evenodd" stroke="#0CBAEE" stroke-linecap="round" stroke-linejoin="round" stroke-width="2">
        <path d="M1 1h100v210H1z"/>
        <path d="M17 17h14v12H17zM17 42h14v12H17zM44 17h14v12H44zM44 42h14v12H44zM71 17h14v12H71zM71 42h14v12H71zM17 67h14v12H17zM44 67h14v12H44zM71 67h14v12H71zM17 92h14v12H17zM44 92h14v12H44zM71 92h14v12H71zM17 117h14v12H17zM44 117h14v12H44zM71 117h14v12H71zM17 142h14v12H17zM44 142h14v12H44zM71 142h14v12H71z"/>
    </g>
</svg>
