<svg xmlns="http://www.w3.org/2000/svg" width="270" height="270"  viewBox="0 0 270 270">
    <g fill="none" fill-rule="evenodd">
        <rect width="100" height="210" x="32" y="30" stroke="#0CBAEE" stroke-linecap="round" stroke-linejoin="round" stroke-width="2" rx="4"/>
        <path stroke="#FFF" stroke-linecap="round" stroke-linejoin="round" stroke-width="2" d="M137 66h121v42H137"/>
        <circle cx="216" cy="87" r="3" stroke="#0CBAEE" stroke-linecap="round" stroke-linejoin="round" stroke-width="2"/>
        <circle cx="228" cy="87" r="3" stroke="#0CBAEE" stroke-linecap="round" stroke-linejoin="round" stroke-width="2"/>
        <circle cx="240" cy="87" r="3" stroke="#0CBAEE" stroke-linecap="round" stroke-linejoin="round" stroke-width="2"/>
        <circle cx="216" cy="133" r="3" stroke="#0CBAEE" stroke-linecap="round" stroke-linejoin="round" stroke-width="2"/>
        <circle cx="216" cy="179" r="3" stroke="#0CBAEE" stroke-linecap="round" stroke-linejoin="round" stroke-width="2"/>
        <circle cx="228" cy="133" r="3" stroke="#0CBAEE" stroke-linecap="round" stroke-linejoin="round" stroke-width="2"/>
        <circle cx="228" cy="179" r="3" stroke="#0CBAEE" stroke-linecap="round" stroke-linejoin="round" stroke-width="2"/>
        <circle cx="240" cy="133" r="3" stroke="#0CBAEE" stroke-linecap="round" stroke-linejoin="round" stroke-width="2"/>
        <circle cx="240" cy="179" r="3" stroke="#0CBAEE" stroke-linecap="round" stroke-linejoin="round" stroke-width="2"/>
        <path stroke="#FFF" stroke-linecap="round" stroke-linejoin="round" stroke-width="2" d="M137 112h121v42H137"/>
        <path fill="#FFF" d="M221 107h28v2a2 2 0 0 1-2 2h-24a2 2 0 0 1-2-2v-2zM221 153h28v2a2 2 0 0 1-2 2h-24a2 2 0 0 1-2-2v-2z"/>
        <path stroke="#FFF" stroke-linecap="round" stroke-linejoin="round" stroke-width="2" d="M137 158h121v42H137"/>
        <path fill="#FFF" d="M221 199h28v2a2 2 0 0 1-2 2h-24a2 2 0 0 1-2-2v-2z"/>
        <rect width="54" height="2" x="48" y="65" fill="#0CBAEE" rx="1"/>
        <rect width="7" height="2" x="109" y="65" fill="#0CBAEE" rx="1"/>
        <rect width="54" height="2" x="48" y="86" fill="#0CBAEE" rx="1"/>
        <rect width="7" height="2" x="109" y="86" fill="#0CBAEE" rx="1"/>
        <rect width="64" height="2" x="137" y="86" fill="#FFF" rx="1"/>
        <rect width="64" height="2" x="137" y="132" fill="#FFF" rx="1"/>
        <rect width="64" height="2" x="137" y="178" fill="#FFF" rx="1"/>
        <rect width="54" height="2" x="48" y="107" fill="#0CBAEE" rx="1"/>
        <g fill="#202528" transform="translate(48 129)">
            <circle cx="4" cy="14" r="4"/>
            <circle cx="14" cy="14" r="4"/>
            <circle cx="24" cy="4" r="4"/>
            <circle cx="24" cy="14" r="4"/>
            <circle cx="34" cy="4" r="4"/>
            <circle cx="44" cy="4" r="4"/>
            <circle cx="44" cy="14" r="4"/>
            <circle cx="54" cy="4" r="4"/>
            <circle cx="54" cy="14" r="4"/>
            <circle cx="14" cy="24" r="4"/>
            <circle cx="34" cy="24" r="4"/>
            <circle cx="44" cy="24" r="4"/>
            <circle cx="54" cy="24" r="4"/>
            <circle cx="64" cy="24" r="4"/>
            <circle cx="4" cy="34" r="4"/>
            <circle cx="14" cy="34" r="4"/>
            <circle cx="24" cy="34" r="4"/>
            <circle cx="34" cy="34" r="4"/>
            <circle cx="54" cy="34" r="4"/>
        </g>
        <rect width="7" height="2" x="109" y="107" fill="#0CBAEE" rx="1"/>
        <circle cx="82" cy="195" r="5" stroke="#0CBAEE" stroke-linecap="round" stroke-linejoin="round" stroke-width="2"/>
    </g>
</svg>
