<svg xmlns="http://www.w3.org/2000/svg" width="52" height="50" viewBox="0 0 52 50">
    <g fill="none" fill-rule="evenodd">
        <path fill="#FFF" d="M-1324-881h2704v3424h-2704z"/>
        <g fill-rule="nonzero">
            <path fill="#707E85" d="M36.71 34.751l-2.59-1.398c-2.032-1.263-4.682-.607-5.92 1.467a4.274 4.274 0 0 0-.083.146l-1.18 1.807a54.509 54.509 0 0 1-14.091-14.441l1.77-1.194c1.273-.881 3.159-2.892 1.442-6.355l-1.232-2.419c-1.822-3.44-4.508-3.021-5.95-2.452l-6.014 2.43a4.257 4.257 0 0 0-2.665 2.71 7.426 7.426 0 0 0 .664 5.172C7.02 32.65 16.91 42.74 29.086 49.02c1.059.563 2.229.875 3.422.914 1.85.01 3.519-1.131 4.213-2.882v-.075l2.39-6.161c.548-1.473.96-4.215-2.4-6.065zm.97 5.484l-2.339 6.097a3.194 3.194 0 0 1-1.695 1.742c-1.301.36-2.69.162-3.844-.549C17.914 41.396 8.257 31.548 2.24 19.418a5.893 5.893 0 0 1-.537-3.914 2.69 2.69 0 0 1 1.738-1.699l6.014-2.43c.425-.176.878-.27 1.337-.28a3.093 3.093 0 0 1 2.654 1.99l1.211 2.419c.58 1.161 1.117 2.882-.916 4.301l-2.433 1.645a.817.817 0 0 0-.22 1.075A56.133 56.133 0 0 0 26.79 38.58a.78.78 0 0 0 1.053-.226l1.611-2.484c.668-1.378 2.304-1.944 3.654-1.263.11.056.215.118.317.188l2.57 1.377c1.137.623 2.548 1.73 1.684 4.064z"/>
            <path fill="#0CBAEE" d="M45.515 9.697c-.495-5.376-5.95-9.57-12.638-9.57-6.982 0-12.638 4.646-12.638 10.355.077 3.086 1.611 5.942 4.118 7.667v6.376c0 .446.354.807.79.807.199 0 .39-.077.537-.215l4.77-4.452c.38.065.749.108 1.128.14 1.558 3.323 5.423 5.516 9.815 5.516.66 0 1.318-.05 1.97-.15l3.865 3.612c.32.303.82.284 1.116-.042a.816.816 0 0 0 .21-.549v-5.161c2.062-1.45 3.315-3.822 3.37-6.377 0-3.473-2.558-6.612-6.413-7.957zM32.74 19.235a13.09 13.09 0 0 1-2.401-.226.768.768 0 0 0-.674.194l-3.728 3.484V17.73a.811.811 0 0 0-.348-.667c-2.25-1.406-3.665-3.867-3.77-6.56 0-4.816 4.97-8.741 11.08-8.741 6.107 0 11.078 3.925 11.078 8.742a6.946 6.946 0 0 1-.179 1.505 9.162 9.162 0 0 1-2.77 4.409 12.801 12.801 0 0 1-8.288 2.817zm14.576 3.678a.811.811 0 0 0-.348.666v3.753l-2.822-2.635a.781.781 0 0 0-.537-.215h-.148c-.694.13-1.4.196-2.106.194-3.094.114-6.053-1.299-7.951-3.796a14.773 14.773 0 0 0 8.804-3.344 10.08 10.08 0 0 0 3.16-5.3c0-.227.094-.431.115-.625v-.129c2.96 1.15 4.866 3.56 4.866 6.172-.084 2.161-1.223 4.136-3.033 5.259z"/>
        </g>
    </g>
</svg>
