<?xml version="1.0" encoding="UTF-8"?>
<svg width="46px" height="16px" viewBox="0 0 46 16" version="1.1" xmlns="http://www.w3.org/2000/svg" xmlns:xlink="http://www.w3.org/1999/xlink">
    <!-- Generator: Sketch 51 (57462) - http://www.bohemiancoding.com/sketch -->
    <title>visa</title>
    <desc>Created with Sketch.</desc>
    <defs></defs>
    <g id="Symbols" stroke="none" stroke-width="1" fill="none" fill-rule="evenodd">
        <g id="Footer" transform="translate(-250.000000, -239.000000)" fill-rule="nonzero">
            <g id="КАрты">
                <g transform="translate(250.000000, 235.000000)">
                    <g id="visa" transform="translate(0.000000, 3.870968)">
                        <path d="M30.1756416,0.309677419 C26.5157247,0.309677419 23.9761905,2.32258065 23.9761905,5.18709677 C23.9761905,7.35483871 25.843495,8.51612903 27.1879543,9.21290323 C28.6071058,9.90967742 29.129951,10.3741935 29.129951,11.0709677 C29.129951,12.0774194 28.0095683,12.5419355 26.8891856,12.5419355 C25.3953419,12.5419355 24.6484201,12.3096774 23.4533452,11.7677419 L23.0051921,11.5354839 L22.4823468,14.8645161 C23.378653,15.2516129 24.9471888,15.6387097 26.5904169,15.6387097 C30.4744103,15.6387097 33.0139445,13.6258065 33.0139445,10.6064516 C33.0139445,8.90322581 32.0429462,7.66451613 29.8768729,6.58064516 C28.6071058,5.88387097 27.7854918,5.41935484 27.7854918,4.72258065 C27.7854918,4.10322581 28.4577214,3.48387097 29.8768729,3.48387097 C31.0719478,3.48387097 31.968254,3.71612903 32.6404836,4.02580645 L32.9392523,4.18064516 L33.4620976,1.00645161 C32.789868,0.619354839 31.5947931,0.309677419 30.1756416,0.309677419 L30.1756416,0.309677419 Z M18.7477377,0.619354839 L16.4322801,15.4064516 L20.092197,15.4064516 L22.4076547,0.619354839 L18.7477377,0.619354839 L18.7477377,0.619354839 Z M13.3699006,0.619354839 L9.78467586,10.683871 L9.41121495,8.67096774 C8.51490877,6.19354839 6.57291203,3.48387097 4.33214657,2.47741935 L7.61860258,15.4064516 L11.5025961,15.4064516 L17.3285863,0.619354839 L13.3699006,0.619354839 L13.3699006,0.619354839 Z M40.1097018,0.619354839 C39.2133956,0.619354839 38.541166,0.851612903 38.1677051,1.85806452 L32.7151758,15.4064516 L36.5991693,15.4064516 C36.5991693,15.4064516 37.1967067,13.5483871 37.3460911,13.1612903 L42.0516986,13.1612903 C42.2010829,13.7032258 42.4998517,15.4064516 42.4998517,15.4064516 L45.935692,15.4064516 L42.9480047,0.619354839 L40.1097018,0.619354839 L40.1097018,0.619354839 Z M40.4084706,4.56774194 L40.6325471,5.80645161 C40.6325471,5.80645161 41.3047767,9.36774194 41.4541611,10.0645161 L38.3917816,10.0645161 C38.6905504,9.21290323 39.8856253,5.96129032 39.8856253,5.96129032 C39.8856253,6.03870968 40.184394,5.18709677 40.4084706,4.56774194 L40.4084706,4.56774194 Z" id="Shape" fill="#F3F3F3"></path>
                        <path d="M6.34883548,0.619354839 L0.373460911,0.619354839 L0.373460911,0.851612903 C5.00437621,2.09032258 8.06675567,5.10967742 9.33652277,8.67096774 L8.06675567,1.85806452 C7.84267913,0.929032258 7.17044949,0.619354839 6.34883548,0.619354839" id="Shape" fill="#FFAB00"></path>
                    </g>
                </g>
            </g>
        </g>
    </g>
</svg>